<?xml version="1.0" encoding="utf-8"?>
<!-- Generator: Adobe Illustrator 18.1.0, SVG Export Plug-In . SVG Version: 6.00 Build 0)  -->
<svg version="1.1" id="Layer_1" xmlns="http://www.w3.org/2000/svg" xmlns:xlink="http://www.w3.org/1999/xlink" x="0px" y="0px"
	 viewBox="0 0 130.9 311.8" enable-background="new 0 0 130.9 311.8" xml:space="preserve">
<g>
	<path fill="#00AEEF" d="M57.3,194.5c0,0,17,9,21.3-5c0.3-1,0.5-2.1,0.5-3.2c0.2-2.8,1-9.3,5-9.3c0,0,6.5-0.8,8.7,11
		c0.8,4.3,0.7,8.7,0,13c-1.1,6.3-2.4,19,3.8,25.2l6.3,7c3.2,3.6,6.6,7.1,10,10.5c5.7,5.7,16,17.5,16,28c0,0,2.2,12-11.8,21
		c0,0-31.6,21.3-66.2,18.8c-19.7-1.4-35.5-17.4-36-37.1c0-0.6,0-1.1,0-1.7c0,0,0-16.5,1.8-26.2c0,0,0.5-1.9,0.8-5.3
		c1.1-11.7-1.5-23.4-7.2-33.7C5.8,199.7,0,187.3,0,177c0,0-0.2-18.7,7.8-18.7c0,0,6.8-1.8,6.8,12c0,0,0,7.2,8.3,12.5
		c0,0,8.5,5.2,12.9,0.4c1.4-1.5,1.8-3.6,1.5-5.6c-1.9-10.2-8.2-58.7,25.5-127.8h1c0,0,1.8-4.2-0.2-8.3c0,0-1.3-2.5,7.3-9
		c0,0-0.3-1.8-3.3-0.8c0,0-2,0.2-2-2.2c0,0,1.3-3.7,5.3-3.7l1.8,1.5l-0.8,2l0.8,1.7l5.5-4.5l-0.8-1.5c0,0-2,0.5-3,0l-1.4-1.3
		c0,0,0.6-3.6,5.8-4l1.6,1.5l-1,2.6l0.9,1.2c0,0,5.5-4,6.1-4.4l-1.2-1c0,0-2.2,0.4-2.9,0l-1.5-1.9c0,0,1.2-3.4,5.2-3.8l2.2,1.5
		l-1.2,2.4l1.4,1.2l6-3.6l-1-1.5h-3.4l-1.2-1.6c0,0,0.9-2.9,5.1-3.5c0,0,1.5-0.4,2.9,1.6L95.4,13l1,1.2c0,0,4.2-2.8,6.2-3.6
		l-1.2-1.8h-2.8l-1.4-1.7c0,0,1.4-2.6,5.1-2.9c0,0,2.5,0.6,3,1.9l-1.6,2l1,1.2c0,0,5.6-2.9,6.8-3.2l-0.9-1.9h-3.1L106,2.9
		c0,0,1-2.4,5.6-2.9c0,0,1.9,0.1,2.8,1.8l-1.6,1.8l0.8,1.6c0,0,4.2-1.6,7.9-1.6c0,0,9.5-0.1,9.5,6.6c0,0,0,6-7,7.5
		c-1.5,0.3-3.1,0.3-4.6,0.1c-1.9-0.2-5.5-0.3-8.2,1.8c0,0-6.8,8.9-8,12.8c0,0-3.4,9.6-7.8,10.9c0,0-12,4.1-17.2,11
		C78.1,54.2,43.8,106.2,57.3,194.5z"/>
	<path fill="#1C75BC" d="M90.1,268c0,0,0-4,5.2-4c0,0,13.9,0.5,23,11.9c0,0-0.6,1.2-3.7,1.4c-0.8,0.1-1.5,0-2.3,0
		C108,277,90.1,275.1,90.1,268z"/>
	<path fill="#1C75BC" d="M119.4,260.1c0-6.1-12.2-17.1-17.7-21.7c-2.3-2-4.5-4.1-6.4-6.6c-7.5-9.8-7.3-16.2-7.3-16.2
		c0-2.1,1.6-13.1,2.4-18.3c0.4-2.6,0.4-5.3,0-7.9c-1.3-8-5.4-9.2-5.4-9.2c-1.9,0-1.8,4.7-1.8,4.7c0,0.9-0.1,2.1-0.3,3.3
		c-0.8,5.3-4.3,9.9-9.4,11.8c-0.5,0.2-0.9,0.3-1.3,0.4c-2.4,0.6-5,0.5-7.3-0.3c-5.8-1.9-6.5-1-6.5-1c0,4.1-1.7,5-1.7,5l-11.7,1.2
		c-2.2,0.7-4.2-2-4.2-2l-1.8-10.5c-1.5-1.5-6.3-2.1-6.3-2.1c-4.2,0-2.5,4.5-2.5,4.5c0.8,1.9,1.4,3.6,2,5.3c3.3,8.9,4.5,18.5,3.5,28
		c-0.7,6.3-0.7,12-0.6,15.3c0.1,2.6,0.4,5.1,1,7.6c3.8,15.1,14.6,14.7,14.6,14.7c0.7,0.1,1.8-0.1,3.3-0.3l-1-2.5
		c0,0-0.6-3.1,1.2-3.1l21-4.8c0,0,1.6-1.1,2.5,1.9l0.8,2.2c0.3-0.1,0.4-0.1,0.4-0.1c1.3-0.6,2.8-1,4.4-1.3c4.7-0.8,9.5-0.4,14,1
		c6.6,2.1,17.6,5.4,17.6,5.4C120,264.5,119.4,260.1,119.4,260.1z M40.7,213.6c-0.5-0.5-0.8-1.1-0.8-1.8c0,0-0.4-3.2,2-3.2l18.2-2.1
		c0,0,3,0.5,3,3.4c0,0,0,3.1-2.4,3.1l-16,2C43.3,215.1,41.8,214.6,40.7,213.6z M46.1,233.7c-0.6-0.6-1.2-1.5-1.2-3
		c0,0,0-2.2,1.4-2.2l17-2.8c1.4-0.2,2.9,0.2,3.8,1.3c0.5,0.6,0.8,1.3,0.8,2.3c0,0,0.1,2.1-1.9,2.1l-16.7,3.1
		C48.1,234.8,46.9,234.5,46.1,233.7z M73.2,249.2c-0.4,0.7-1.2,1.4-2.4,1.4l-17.6,0.6c0,0-3.4,0.4-3.4-3.3c0,0,0.1-2.6,1.7-2.6
		l18.6-0.7c1,0,2.1,0.3,2.8,1.1c0,0,0,0,0,0C73.8,246.7,73.9,248.1,73.2,249.2z M81.4,252.1c-2.4,0-4.4-2-4.4-4.4s2-4.4,4.4-4.4
		s4.4,2,4.4,4.4S83.8,252.1,81.4,252.1z M96.3,255.4c-2.3,0-4.1-1.8-4.1-4.1c0-2.3,1.8-4.1,4.1-4.1s4.1,1.8,4.1,4.1
		C100.4,253.5,98.5,255.4,96.3,255.4z M110.9,261.2c-2.2,0-4-1.8-4-4c0-2.2,1.8-4,4-4s4,1.8,4,4
		C114.9,259.5,113.1,261.2,110.9,261.2z"/>
</g>
</svg>
